<svg width="25" height="24" viewBox="0 0 25 24" fill="none" xmlns="http://www.w3.org/2000/svg">
<path d="M17 3H8C5.51472 3 3.5 5.01472 3.5 7.5V16.5C3.5 18.9853 5.51472 21 8 21H17C19.4853 21 21.5 18.9853 21.5 16.5V7.5C21.5 5.01472 19.4853 3 17 3Z" stroke="#020617" stroke-width="1.5" stroke-linecap="round" stroke-linejoin="round"/>
<path d="M8.5 16.375V10.75M12.5 16.375V13.5M12.5 13.5V10.75M12.5 13.5C12.5 12.2124 13.722 11.5 14.9 11.5C16.5 11.5 16.5 12.875 16.5 14.375V16.375" stroke="#020617" stroke-width="1.5" stroke-linecap="round" stroke-linejoin="round"/>
<path d="M8.5 7.625L8.5 8.125" stroke="#020617" stroke-width="1.5" stroke-linecap="round" stroke-linejoin="round"/>
</svg>
