<svg width="25" height="24" viewBox="0 0 25 24" fill="none" xmlns="http://www.w3.org/2000/svg">
<path d="M4 15.6676C4.44943 15.7224 4.78277 15.9286 5 16.2863C5.32585 16.8226 6.5371 18.8125 7.91255 18.8125C8.82955 18.8125 9.52575 18.8125 10.0012 18.8125" stroke="#020617" stroke-width="1.5" stroke-linecap="round" stroke-linejoin="round"/>
<path d="M10.8701 15.3913C10.2909 16.0276 10.0012 16.6318 10.0012 17.2039C10.0012 17.776 10.0012 18.6726 10.0012 21" stroke="#020617" stroke-width="1.5" stroke-linecap="round" stroke-linejoin="round"/>
<path d="M15.6722 15.2987C16.8741 15.0494 17.9646 14.6172 18.8123 13.9827C20.2601 12.899 21 11.2254 21 9.57192C21 8.41196 20.5593 7.329 19.7964 6.41176C19.3713 5.90064 20.6148 2.5396 19.51 3.05321C18.4053 3.56682 16.7854 4.25113 15.9363 4.00023C15.0273 3.73161 14.0366 3.58403 13 3.58403C12.0996 3.58403 11.234 3.69536 10.4263 3.90064C9.2523 4.19903 8.12955 3.53758 7 3.05321C5.87043 2.56884 6.4868 6.06067 6.1513 6.47548C5.42059 7.37895 5 8.43866 5 9.57192C5 11.2254 5.89543 12.899 7.34315 13.9827C8.30755 14.7044 9.517 15.1645 10.8701 15.3912" stroke="#020617" stroke-width="1.5" stroke-linecap="round" stroke-linejoin="round"/>
<path d="M15.6721 15.2987C16.221 16.0177 16.4955 16.6632 16.4955 17.2353C16.4955 17.8074 16.4955 18.6936 16.4955 21" stroke="#020617" stroke-width="1.5" stroke-linecap="round" stroke-linejoin="round"/>
</svg>
