<svg width="25" height="24" viewBox="0 0 25 24" fill="none" xmlns="http://www.w3.org/2000/svg">
<path d="M2.5 12C2.5 8.22876 2.5 6.34315 3.96447 5.17157C5.42893 4 7.78595 4 12.5 4C17.214 4 19.5711 4 21.0355 5.17157C22.5 6.34315 22.5 8.22876 22.5 12C22.5 15.7712 22.5 17.6569 21.0355 18.8284C19.5711 20 17.214 20 12.5 20C7.78595 20 5.42893 20 3.96447 18.8284C2.5 17.6569 2.5 15.7712 2.5 12Z" stroke="#020617" stroke-width="1.5" stroke-linecap="round" stroke-linejoin="round"/>
<path d="M21.1666 5.31018L16.3411 9.79909C14.5045 11.3296 13.5862 12.0949 12.5 12.0949C11.4139 12.0949 10.4955 11.3296 8.65891 9.7991L3.83344 5.31018" stroke="#020617" stroke-width="1.5" stroke-linecap="round" stroke-linejoin="round"/>
</svg>
